<svg viewBox="0 0 100 49" fill="none" xmlns="http://www.w3.org/2000/svg">
  <circle cx="24.5" cy="24.5" r="19.5" fill="currentColor"/>
  <path d="M24.5 6C14.3 6 6 14.3 6 24.5S14.3 43 24.5 43c8.9 0 16.3-6.3 18.1-14.6H24.5V21h21.4c.1.8.1 1.6.1 2.5 0 11.3-9.2 20.5-20.5 20.5S4 35.8 4 24.5 13.2 4 24.5 4c5.5 0 10.5 2.2 14.1 5.8l-3 3c-2.8-2.8-6.7-4.5-11.1-4.5z" fill="currentColor"/>
  <path d="M56 13h4v24h-4V13zM68 18c3.3 0 6 2.7 6 6v13h-4V24.5c0-1.4-1.1-2.5-2.5-2.5S65 23.1 65 24.5V37h-4V24c0-3.3 2.7-6 6-6zM82 18c2.2 0 4.2.9 5.7 2.3l-2.8 2.8c-.6-.6-1.4-.9-2.2-.9-1.7 0-3 1.3-3 3v6.5c0 1.7 1.3 3 3 3 .8 0 1.6-.3 2.2-.9l2.8 2.8c-1.5 1.4-3.5 2.3-5.7 2.3-3.9 0-7-3.1-7-7v-6.5c0-3.9 3.1-7 7-7z" fill="currentColor"/>
</svg>