<svg viewBox="0 0 193 49" fill="none" xmlns="http://www.w3.org/2000/svg">
  <path d="M40.58 19.93c-.38 3.38-2.23 5.75-4.55 7.04l.77.75c1.41-.43 2.57-1.45 3.43-2.73 1-1.51 1.6-3.4 1.65-5.35h-1.3v.29zm-5.65 14.62c-.27 0-.55.03-.84.1-.52.14-.98.4-1.35.73-.37.33-.65.74-.83 1.19-.17.46-.23.94-.18 1.42.06.48.23.94.51 1.34.28.4.65.73 1.09.95.44.22.93.33 1.42.31.49-.02.96-.18 1.39-.45.42-.27.77-.63 1.02-1.05.24-.42.38-.89.39-1.37.02-.48-.08-.96-.28-1.4-.2-.44-.5-.82-.88-1.12-.38-.29-.83-.48-1.3-.57-.14-.03-.29-.05-.45-.05l-.71-.03zm17.08-14.6c-.01 1.69-.43 3.35-1.21 4.83-.78 1.48-1.89 2.74-3.25 3.66l.82.76c1.14-.52 2.16-1.27 3-2.18 1.09-1.18 1.9-2.58 2.37-4.09.36-1.14.52-2.33.47-3.52l-2.2.54zM35.39 5c-2.04 0-4.05.38-5.91 1.13-1.87.75-3.57 1.85-5.01 3.25-1.44 1.4-2.59 3.07-3.39 4.91-.8 1.84-1.23 3.82-1.27 5.83-.04 2.01.32 4.01 1.06 5.87.74 1.86 1.83 3.54 3.21 4.94 1.38 1.4 3.02 2.5 4.83 3.24 1.81.74 3.76 1.12 5.73 1.12 2.04 0 4.05-.38 5.91-1.13 1.87-.75 3.57-1.85 5.01-3.25 1.44-1.4 2.59-3.07 3.39-4.91.8-1.84 1.23-3.82 1.27-5.83.04-2.01-.32-4.01-1.06-5.87-.74-1.86-1.83-3.54-3.21-4.94-1.38-1.4-3.02-2.5-4.83-3.24C39.3 5.37 37.35 5 35.39 5zm-4.01 9.17c1.49-1.49 3.51-2.33 5.62-2.33 2.11 0 4.13.84 5.62 2.33 1.49 1.49 2.33 3.51 2.33 5.62 0 2.11-.84 4.13-2.33 5.62-1.49 1.49-3.51 2.33-5.62 2.33-2.11 0-4.13-.84-5.62-2.33-1.49-1.49-2.33-3.51-2.33-5.62 0-2.11.84-4.13 2.33-5.62z" fill="currentColor"/>
  <path d="M70.9 31.56V13.03h4.98v15.44h8.64v3.09H70.9zM87.28 31.56V13.03h4.98v18.53h-4.98zM100.37 31.56l7.99-18.53h5.16l-8.01 18.53h-5.14zM118.7 31.56V13.03h13.41v3.09h-8.43v4.62h7.56v3.09h-7.56v4.64h8.43v3.09H118.7zM145.14 31.56V16.12h-5.85v-3.09h16.68v3.09h-5.85v15.44h-4.98zM159.08 31.56V13.03h4.98v7.3l7.11-7.3h6.18l-8.22 8.22 8.64 10.31h-6.24l-5.79-7.05-1.68 1.68v5.37h-4.98z" fill="currentColor"/>
</svg>